# xmcd
#
# Track frame offsets:
#	182
#	16700
#	23822
#	33987
#	46490
#	58740
#	80345
#	91447
#	97960
#	110072
#	121335
#	136082
#	157915
#	167792
#	179522
#	186480
#	202857
#	215922
#
# Disc length: 2992 seconds
#
# Revision: 0
# Processed by: cddbd v1.5.1PL0 Copyright (c) Steve Scherf et al.
# Submitted via: dBpowerAMP V4.0
#
DISCID=f10bae12
DTITLE=Marcel Dadi - Marcel Dadi
DYEAR=1990
DGENRE=Blues
TTITLE0=BLueberry
TTITLE1=Lady Madonna
TTITLE2=Deep River Blues
TTITLE3=Slow Blues in C
TTITLE4=Winter's Waltz
TTITLE5=L'Echo Des Savanes
TTITLE6=For No One
TTITLE7=Yankee Doodle/Dixie
TTITLE8=La Madrugada
TTITLE9=Nine Pound Hammer
TTITLE10=Sonia (avec Raphael Fays)
TTITLE11=Two Days With Charlie (avec Raphael Fays)
TTITLE12=Windy And Warm (avec Chet Atkins)
TTITLE13=Lullaby Of Birdland , Walk don't Run
TTITLE14=Take Five
TTITLE15=Winter Walkin/Baby's coming Home
TTITLE16=Swedish Rapsody/Country Gentleman
TTITLE17=Ce n'est qu'un Aurevoir
EXTD=Editeur =Préférences
EXTT0=
EXTT1=
EXTT2=
EXTT3=
EXTT4=
EXTT5=
EXTT6=
EXTT7=
EXTT8=
EXTT9=
EXTT10=
EXTT11=
EXTT12=
EXTT13=
EXTT14=
EXTT15=
EXTT16=
EXTT17=
PLAYORDER=
